<svg width="114" height="116" viewBox="0 0 114 116" fill="none" xmlns="http://www.w3.org/2000/svg">
<path d="M28.9006 94.5341C23.0369 94.5341 18.2301 93.1023 14.4801 90.2386C10.7301 87.3523 8.1733 83.1932 6.80966 77.7614C5.46875 72.3295 5.43466 65.7955 6.70739 58.1591C8.00284 50.5455 10.2188 44.0568 13.3551 38.6932C16.5142 33.3295 20.4233 29.25 25.0824 26.4545C29.7642 23.6364 35.0256 22.2273 40.8665 22.2273C46.6847 22.2273 51.4688 23.6364 55.2188 26.4545C58.9688 29.2727 61.5369 33.3523 62.9233 38.6932C64.3324 44.0341 64.4006 50.5227 63.1278 58.1591C61.8551 65.8182 59.6392 72.3636 56.4801 77.7955C53.321 83.2045 49.4006 87.3523 44.7188 90.2386C40.0369 93.1023 34.7642 94.5341 28.9006 94.5341ZM30.946 82.2955C34.9688 82.2955 38.4915 80.2841 41.5142 76.2614C44.5369 72.2386 46.7188 66.2045 48.0597 58.1591C48.946 52.8864 49.1392 48.4886 48.6392 44.9659C48.1619 41.4205 47.0824 38.7614 45.4006 36.9886C43.7188 35.2159 41.5483 34.3295 38.8892 34.3295C34.9119 34.3295 31.3892 36.3295 28.321 40.3295C25.2756 44.3068 23.0938 50.25 21.7756 58.1591C20.8892 63.5227 20.696 68 21.196 71.5909C21.696 75.1591 22.7869 77.8409 24.4688 79.6364C26.1506 81.4091 28.3097 82.2955 30.946 82.2955ZM109.824 23.1818L98.233 93H83.4716L92.7443 37.1932H92.3352L74.6761 47.2159L76.858 34.125L95.9489 23.1818H109.824Z" fill="#D0BD7D"/>
<path d="M13 52C7.47715 52 3 56.4771 3 62C3 67.5229 7.47715 72 13 72C18.5229 72 23 67.5229 23 62C23 56.4771 18.5229 52 13 52ZM17.2908 56.6838L19.3684 58.7615L12.8792 65.252L10.8137 67.3162L8.73608 65.2385L6.63158 63.1328L8.6958 61.0686L10.8003 63.1743L17.2908 56.6838Z" fill="#F24E1E"/>
</svg>
