<svg width="127" height="116" viewBox="0 0 127 116" fill="none" xmlns="http://www.w3.org/2000/svg">
<path d="M28.6506 94.5341C22.7869 94.5341 17.9801 93.1023 14.2301 90.2386C10.4801 87.3523 7.9233 83.1932 6.55966 77.7614C5.21875 72.3295 5.18466 65.7955 6.45739 58.1591C7.75284 50.5455 9.96875 44.0568 13.1051 38.6932C16.2642 33.3295 20.1733 29.25 24.8324 26.4545C29.5142 23.6364 34.7756 22.2273 40.6165 22.2273C46.4347 22.2273 51.2188 23.6364 54.9688 26.4545C58.7188 29.2727 61.2869 33.3523 62.6733 38.6932C64.0824 44.0341 64.1506 50.5227 62.8778 58.1591C61.6051 65.8182 59.3892 72.3636 56.2301 77.7955C53.071 83.2045 49.1506 87.3523 44.4688 90.2386C39.7869 93.1023 34.5142 94.5341 28.6506 94.5341ZM30.696 82.2955C34.7188 82.2955 38.2415 80.2841 41.2642 76.2614C44.2869 72.2386 46.4688 66.2045 47.8097 58.1591C48.696 52.8864 48.8892 48.4886 48.3892 44.9659C47.9119 41.4205 46.8324 38.7614 45.1506 36.9886C43.4688 35.2159 41.2983 34.3295 38.6392 34.3295C34.6619 34.3295 31.1392 36.3295 28.071 40.3295C25.0256 44.3068 22.8438 50.25 21.5256 58.1591C20.6392 63.5227 20.446 68 20.946 71.5909C21.446 75.1591 22.5369 77.8409 24.2188 79.6364C25.9006 81.4091 28.0597 82.2955 30.696 82.2955ZM67.608 93L69.4148 82.3636L98.0511 59.3523C100.506 57.3068 102.585 55.4659 104.29 53.8295C106.017 52.1932 107.381 50.5909 108.381 49.0227C109.403 47.4318 110.074 45.7159 110.392 43.875C110.733 41.8295 110.563 40.0682 109.881 38.5909C109.222 37.0909 108.153 35.9432 106.676 35.1477C105.222 34.3295 103.472 33.9205 101.426 33.9205C99.2898 33.9205 97.3466 34.3523 95.5966 35.2159C93.8466 36.0795 92.392 37.3182 91.233 38.9318C90.0739 40.5455 89.3011 42.4659 88.9148 44.6932H74.9034C75.6761 40.125 77.392 36.1591 80.0511 32.7955C82.7102 29.4318 86.0511 26.8295 90.0739 24.9886C94.0966 23.1477 98.5511 22.2273 103.438 22.2273C108.438 22.2273 112.642 23.1136 116.051 24.8864C119.483 26.6364 121.972 29.0682 123.517 32.1818C125.063 35.2955 125.494 38.8636 124.812 42.8864C124.358 45.5455 123.392 48.1591 121.915 50.7273C120.438 53.2727 118.119 56.1136 114.96 59.25C111.801 62.3636 107.472 66.1023 101.972 70.4659L90.142 80.4545L90.0398 80.9318H119.392L117.381 93H67.608Z" fill="#D0BD7D"/>
<path d="M14 53C8.47715 53 4 57.4772 4 63C4 68.5229 8.47715 73 14 73C19.5229 73 24 68.5229 24 63C24 57.4772 19.5229 53 14 53ZM18.2908 57.6838L20.3684 59.7615L13.8792 66.252L11.8137 68.3162L9.73608 66.2385L7.63158 64.1328L9.6958 62.0686L11.8003 64.1743L18.2908 57.6838Z" fill="#F24E1E"/>
</svg>
