<svg width="130" height="116" viewBox="0 0 130 116" fill="none" xmlns="http://www.w3.org/2000/svg">
<path d="M28.7443 94.5341C22.8807 94.5341 18.0739 93.1023 14.3239 90.2386C10.5739 87.3523 8.01705 83.1932 6.65341 77.7614C5.3125 72.3295 5.27841 65.7955 6.55114 58.1591C7.84659 50.5455 10.0625 44.0568 13.1989 38.6932C16.358 33.3295 20.267 29.25 24.9261 26.4545C29.608 23.6364 34.8693 22.2273 40.7102 22.2273C46.5284 22.2273 51.3125 23.6364 55.0625 26.4545C58.8125 29.2727 61.3807 33.3523 62.767 38.6932C64.1761 44.0341 64.2443 50.5227 62.9716 58.1591C61.6989 65.8182 59.483 72.3636 56.3239 77.7955C53.1648 83.2045 49.2443 87.3523 44.5625 90.2386C39.8807 93.1023 34.608 94.5341 28.7443 94.5341ZM30.7898 82.2955C34.8125 82.2955 38.3352 80.2841 41.358 76.2614C44.3807 72.2386 46.5625 66.2045 47.9034 58.1591C48.7898 52.8864 48.983 48.4886 48.483 44.9659C48.0057 41.4205 46.9261 38.7614 45.2443 36.9886C43.5625 35.2159 41.392 34.3295 38.733 34.3295C34.7557 34.3295 31.233 36.3295 28.1648 40.3295C25.1193 44.3068 22.9375 50.25 21.6193 58.1591C20.733 63.5227 20.5398 68 21.0398 71.5909C21.5398 75.1591 22.6307 77.8409 24.3125 79.6364C25.9943 81.4091 28.1534 82.2955 30.7898 82.2955ZM94.1222 93.9545C88.8949 93.9545 84.3949 93.0795 80.6222 91.3295C76.8494 89.5795 74.054 87.1477 72.2358 84.0341C70.4403 80.9205 69.8608 77.3295 70.4972 73.2614H85.1562C84.929 74.9432 85.1903 76.4318 85.9403 77.7273C86.7131 79.0227 87.8608 80.0227 89.3835 80.7273C90.929 81.4318 92.7472 81.7841 94.8381 81.7841C97.179 81.7841 99.3381 81.3409 101.315 80.4545C103.293 79.5682 104.929 78.3636 106.224 76.8409C107.543 75.2955 108.349 73.5568 108.645 71.625C108.94 69.7841 108.69 68.2159 107.895 66.9205C107.099 65.6023 105.827 64.5909 104.077 63.8864C102.327 63.1818 100.156 62.8295 97.5653 62.8295H90.7812L92.5881 51.9886H98.7244C100.997 51.9886 103.077 51.5682 104.963 50.7273C106.872 49.8864 108.452 48.7159 109.702 47.2159C110.952 45.7159 111.736 43.9773 112.054 42C112.327 40.3864 112.202 38.9773 111.679 37.7727C111.179 36.5455 110.293 35.6023 109.02 34.9432C107.77 34.2614 106.145 33.9205 104.145 33.9205C102.122 33.9205 100.156 34.2841 98.2472 35.0114C96.3381 35.7159 94.7244 36.7273 93.4062 38.0455C92.0881 39.3636 91.2812 40.9091 90.9858 42.6818H76.9062C77.6108 38.6591 79.2926 35.1136 81.9517 32.0455C84.6335 28.9773 87.9631 26.5795 91.9403 24.8523C95.9403 23.1023 100.259 22.2273 104.895 22.2273C109.827 22.2273 113.986 23.1818 117.372 25.0909C120.759 26.9773 123.213 29.4773 124.736 32.5909C126.281 35.6818 126.759 39.0455 126.168 42.6818C125.509 46.6818 123.759 49.8523 120.918 52.1932C118.099 54.5114 114.588 56.0114 110.384 56.6932V57.2045C115.088 57.8409 118.634 59.7159 121.02 62.8295C123.429 65.9432 124.27 69.7273 123.543 74.1818C122.929 78.0455 121.259 81.4659 118.531 84.4432C115.804 87.4205 112.338 89.75 108.134 91.4318C103.929 93.1136 99.2585 93.9545 94.1222 93.9545Z" fill="#D0BD7D"/>
<path d="M14 53C8.47715 53 4 57.4771 4 63C4 68.5229 8.47715 73 14 73C19.5229 73 24 68.5229 24 63C24 57.4771 19.5229 53 14 53ZM18.2908 57.6838L20.3684 59.7615L13.8792 66.252L11.8137 68.3162L9.73608 66.2385L7.63158 64.1328L9.6958 62.0686L11.8003 64.1743L18.2908 57.6838Z" fill="#F24E1E"/>
</svg>
