<svg width="130" height="130" viewBox="0 0 130 130" fill="none" xmlns="http://www.w3.org/2000/svg">
<path d="M58.5724 49.9992L103.575 5L125 26.4284L80.0008 71.4306M24.2858 84.2858L5 103.572L26.4284 125L45.7142 105.714L24.2858 84.2858Z" stroke="#D0BD7D" stroke-width="8.33333" stroke-linecap="round" stroke-linejoin="round"/>
<path d="M38.9163 55.8692L73.2059 90.1527M21.7761 81.5826C21.213 81.0198 20.7663 80.3515 20.4616 79.616C20.1569 78.8805 20 78.0922 20 77.296C20 76.4999 20.1569 75.7116 20.4616 74.9761C20.7663 74.2406 21.213 73.5723 21.7761 73.0095L47.4895 47.296C48.6261 46.1598 50.1674 45.5215 51.7746 45.5215C53.3817 45.5215 54.923 46.1598 56.0596 47.296L81.773 73.0095C82.3361 73.5723 82.7828 74.2406 83.0875 74.9761C83.3923 75.7116 83.5491 76.4999 83.5491 77.296C83.5491 78.0922 83.3923 78.8805 83.0875 79.616C82.7828 80.3515 82.3361 81.0198 81.773 81.5826L56.0596 107.296C54.923 108.432 53.3817 109.071 51.7746 109.071C50.1674 109.071 48.6261 108.432 47.4895 107.296L21.7761 81.5826V81.5826ZM68.9179 60.1543L47.4895 81.5796L68.9179 60.1543ZM88.2037 19.4371L109.629 40.8685L88.2037 19.4371ZM73.1999 34.4378L94.6282 55.8692L73.1999 34.4378Z" stroke="#D0BD7D" stroke-width="8.33333" stroke-linecap="round" stroke-linejoin="round"/>
</svg>
