<svg width="50" height="50" viewBox="0 0 50 50" fill="none" xmlns="http://www.w3.org/2000/svg">
<path d="M25 0C11.1929 0 0 11.1929 0 25C0 38.8071 11.1929 50 25 50C38.8071 50 50 38.8071 50 25C50 11.1929 38.8071 0 25 0ZM12.3993 10.5621L16.8488 11.9598C17.4378 12.1533 17.8301 12.7003 17.8985 13.2599L18.1488 15.7104L38.2965 17.9595C39.1616 18.1271 39.7695 18.9082 39.6484 19.7112L38.3972 26.7607C38.238 27.4981 37.6273 28.0035 36.9476 28.0119H19.0491L18.6981 30.0108H35.6964C36.5853 30.0421 37.2363 30.719 37.2467 31.5093C37.2098 32.4108 36.4832 33.001 35.6964 33.0107H16.8976C15.9494 32.9323 15.2533 32.1809 15.3992 31.262L16.1987 26.8614L14.9475 14.5599L11.499 13.4613C11.099 13.328 10.7987 13.0772 10.5988 12.7105C10.2203 11.9175 10.5738 11.0395 11.2488 10.6597C11.634 10.4595 12.0103 10.4345 12.3993 10.5621ZM19.1742 33.8745C20.4686 33.8745 21.518 34.9238 21.518 36.2183C21.518 37.5126 20.4686 38.562 19.1742 38.562C17.8799 38.562 16.8305 37.5126 16.8305 36.2183C16.8305 34.9238 17.8798 33.8745 19.1742 33.8745ZM32.9315 33.8745C34.2259 33.8745 35.2753 34.9238 35.2753 36.2183C35.2753 37.5126 34.2259 38.562 32.9315 38.562C31.6371 38.562 30.5878 37.5126 30.5878 36.2183C30.5878 34.9238 31.6371 33.8745 32.9315 33.8745Z" fill="#F8F8F8"/>
</svg>
