<svg width="30" height="30" viewBox="0 0 30 30" fill="none" xmlns="http://www.w3.org/2000/svg">
<path d="M9 7.47461C8.60218 7.47461 8.22064 7.63264 7.93934 7.91395C7.65804 8.19525 7.5 8.57678 7.5 8.97461C7.5 9.37243 7.65804 9.75396 7.93934 10.0353C8.22064 10.3166 8.60218 10.4746 9 10.4746H21C21.3978 10.4746 21.7794 10.3166 22.0607 10.0353C22.342 9.75396 22.5 9.37243 22.5 8.97461C22.5 8.57678 22.342 8.19525 22.0607 7.91395C21.7794 7.63264 21.3978 7.47461 21 7.47461H9V7.47461ZM7.5 15.0001C7.5 14.6023 7.65804 14.2208 7.93934 13.9394C8.22064 13.6581 8.60218 13.5001 9 13.5001H21C21.3978 13.5001 21.7794 13.6581 22.0607 13.9394C22.342 14.2208 22.5 14.6023 22.5 15.0001C22.5 15.3979 22.342 15.7795 22.0607 16.0608C21.7794 16.3421 21.3978 16.5001 21 16.5001H9C8.60218 16.5001 8.22064 16.3421 7.93934 16.0608C7.65804 15.7795 7.5 15.3979 7.5 15.0001ZM9 19.5256C8.60218 19.5256 8.22064 19.6836 7.93934 19.965C7.65804 20.2463 7.5 20.6278 7.5 21.0256C7.5 21.4234 7.65804 21.805 7.93934 22.0863C8.22064 22.3676 8.60218 22.5256 9 22.5256H21C21.3978 22.5256 21.7794 22.3676 22.0607 22.0863C22.342 21.805 22.5 21.4234 22.5 21.0256C22.5 20.6278 22.342 20.2463 22.0607 19.965C21.7794 19.6836 21.3978 19.5256 21 19.5256H9Z" fill="#F8F8F8"/>
<path fill-rule="evenodd" clip-rule="evenodd" d="M30 15C30 23.2845 23.2845 30 15 30C6.7155 30 0 23.2845 0 15C0 6.7155 6.7155 0 15 0C23.2845 0 30 6.7155 30 15ZM27 15C27 18.1826 25.7357 21.2348 23.4853 23.4853C21.2348 25.7357 18.1826 27 15 27C11.8174 27 8.76516 25.7357 6.51472 23.4853C4.26428 21.2348 3 18.1826 3 15C3 11.8174 4.26428 8.76516 6.51472 6.51472C8.76516 4.26428 11.8174 3 15 3C18.1826 3 21.2348 4.26428 23.4853 6.51472C25.7357 8.76516 27 11.8174 27 15V15Z" fill="#F8F8F8"/>
</svg>
