<svg width="44" height="42" viewBox="0 0 44 42" fill="none" xmlns="http://www.w3.org/2000/svg">
<path d="M4.14296 23.5714L23.7858 23.5732C24.6865 23.5734 25.5539 23.9139 26.2142 24.5265C26.8745 25.1391 27.279 25.9786 27.3465 26.8768L27.3572 27.1446V31.6071C27.3555 39.1071 19.7019 41.4285 13.9644 41.4285C8.34118 41.4285 0.876891 39.2 0.580462 32.05L0.571533 31.6071V27.1428C0.571699 26.2421 0.912197 25.3747 1.52481 24.7144C2.13743 24.0541 2.97692 23.6497 3.8751 23.5821L4.14296 23.5714ZM27.7501 23.5732L39.8572 23.5714C40.758 23.5716 41.6254 23.9121 42.2857 24.5247C42.946 25.1373 43.3504 25.9768 43.418 26.875L43.4287 27.1428V30.7143C43.4269 37.4268 37.3037 39.6428 32.7144 39.6428C30.8251 39.6428 28.6805 39.2589 26.8055 38.3482C28.1483 36.7518 29.0197 34.7196 29.1305 32.1625L29.143 31.6071V27.1446C29.143 25.891 28.6983 24.7518 27.9751 23.841L27.7501 23.5714H39.8572L27.7501 23.5732ZM13.9644 0.357117C15.2543 0.357234 16.5315 0.611412 17.7232 1.10514C18.9148 1.59886 19.9976 2.32247 20.9096 3.23464C21.8216 4.14681 22.545 5.22968 23.0385 6.42142C23.532 7.61317 23.7859 8.89045 23.7858 10.1803C23.7857 11.4702 23.5315 12.7474 23.0378 13.9391C22.5441 15.1308 21.8205 16.2135 20.9083 17.1255C19.9961 18.0375 18.9133 18.7609 17.7215 19.2544C16.5298 19.7479 15.2525 20.0019 13.9626 20.0018C11.3576 20.0015 8.85931 18.9664 7.01744 17.1242C5.17556 15.282 4.14094 12.7836 4.14118 10.1785C4.14141 7.5735 5.17649 5.07525 7.0187 3.23338C8.86091 1.3915 11.3593 0.35688 13.9644 0.357117ZM33.6072 3.92854C34.6625 3.92854 35.7074 4.13639 36.6824 4.54023C37.6573 4.94406 38.5432 5.53597 39.2894 6.28215C40.0355 7.02834 40.6274 7.91419 41.0313 8.88912C41.4351 9.86406 41.643 10.909 41.643 11.9643C41.643 13.0195 41.4351 14.0645 41.0313 15.0394C40.6274 16.0143 40.0355 16.9002 39.2894 17.6464C38.5432 18.3926 37.6573 18.9845 36.6824 19.3883C35.7074 19.7921 34.6625 20 33.6072 20C31.476 20 29.4321 19.1534 27.9251 17.6464C26.4181 16.1394 25.5715 14.0955 25.5715 11.9643C25.5715 9.83305 26.4181 7.78914 27.9251 6.28215C29.4321 4.77516 31.476 3.92854 33.6072 3.92854Z" fill="#F8F8F8"/>
</svg>
