<svg width="40" height="40" viewBox="0 0 40 40" fill="none" xmlns="http://www.w3.org/2000/svg">
<path d="M39.4141 36.7236L26.7334 24.043C28.7012 21.499 29.7656 18.3887 29.7656 15.1172C29.7656 11.2012 28.2373 7.5293 25.4736 4.76074C22.71 1.99219 19.0283 0.46875 15.1172 0.46875C11.2061 0.46875 7.52441 1.99707 4.76074 4.76074C1.99219 7.52441 0.46875 11.2012 0.46875 15.1172C0.46875 19.0283 1.99707 22.71 4.76074 25.4736C7.52441 28.2422 11.2012 29.7656 15.1172 29.7656C18.3887 29.7656 21.4941 28.7012 24.0381 26.7383L36.7188 39.4141C36.7559 39.4513 36.8001 39.4808 36.8487 39.5009C36.8973 39.5211 36.9494 39.5314 37.002 39.5314C37.0546 39.5314 37.1066 39.5211 37.1552 39.5009C37.2038 39.4808 37.248 39.4513 37.2852 39.4141L39.4141 37.29C39.4513 37.2529 39.4808 37.2087 39.5009 37.1601C39.5211 37.1115 39.5314 37.0594 39.5314 37.0068C39.5314 36.9542 39.5211 36.9022 39.5009 36.8536C39.4808 36.805 39.4513 36.7608 39.4141 36.7236ZM22.8516 22.8516C20.7813 24.917 18.0371 26.0547 15.1172 26.0547C12.1973 26.0547 9.45313 24.917 7.38281 22.8516C5.31738 20.7813 4.17969 18.0371 4.17969 15.1172C4.17969 12.1973 5.31738 9.44824 7.38281 7.38281C9.45313 5.31738 12.1973 4.17969 15.1172 4.17969C18.0371 4.17969 20.7861 5.3125 22.8516 7.38281C24.917 9.45313 26.0547 12.1973 26.0547 15.1172C26.0547 18.0371 24.917 20.7861 22.8516 22.8516Z" fill="#F8F8F8"/>
</svg>
