<svg width="120" height="120" viewBox="0 0 120 120" fill="none" xmlns="http://www.w3.org/2000/svg">
<path d="M18.4615 0V39.5455C12.24 41.2091 6.54462 44.3618 1.73077 48.9218L7.5 57.4418C13.2252 52.0122 20.3517 49.0649 27.6923 49.0909C45.5954 49.0909 60 66.1145 60 87.2727H81.06C79.3814 90.5678 78.4839 94.3358 78.4615 98.1818C78.4615 110.182 86.7692 120 96.9231 120C107.077 120 115.385 110.182 115.385 98.1818C115.385 92.58 113.455 87.5727 110.478 83.6945L119.709 56.5909L120 55.5655V43.6364H96.9231V27.2727C96.9231 24.1855 98.9262 21.8182 101.538 21.8182V10.9091C93.9462 10.9091 87.6923 18.3 87.6923 27.2727V43.6364H72.4015L59.7092 3.57818L58.5554 0H18.4615ZM27.6923 10.9091H52.2138L64.9062 50.9673L66.06 54.5455H110.335L102.983 76.3636H68.0769C63.84 54.5673 47.4 38.1818 27.6923 38.1818V10.9091ZM27.6923 54.5455C12.4615 54.5455 0 69.2727 0 87.2727C0 105.273 12.4615 120 27.6923 120C42.9231 120 55.3846 105.273 55.3846 87.2727C55.3846 69.2727 42.9231 54.5455 27.6923 54.5455ZM27.6923 65.4545C37.9523 65.4545 46.1538 75.1473 46.1538 87.2727C46.1538 99.3982 37.9523 109.091 27.6923 109.091C17.4323 109.091 9.23077 99.3982 9.23077 87.2727C9.23077 75.1473 17.4323 65.4545 27.6923 65.4545ZM27.6923 76.3636C25.2442 76.3636 22.8963 77.513 21.1652 79.5588C19.4341 81.6047 18.4615 84.3795 18.4615 87.2727C18.4615 90.166 19.4341 92.9408 21.1652 94.9866C22.8963 97.0325 25.2442 98.1818 27.6923 98.1818C30.1405 98.1818 32.4883 97.0325 34.2194 94.9866C35.9506 92.9408 36.9231 90.166 36.9231 87.2727C36.9231 84.3795 35.9506 81.6047 34.2194 79.5588C32.4883 77.513 30.1405 76.3636 27.6923 76.3636ZM96.9231 87.2727C102.078 87.2727 106.154 92.0891 106.154 98.1818C106.154 104.275 102.078 109.091 96.9231 109.091C91.7677 109.091 87.6923 104.275 87.6923 98.1818C87.6923 92.0891 91.7677 87.2727 96.9231 87.2727Z" fill="#D0BD7D"/>
</svg>
