<svg width="120" height="120" viewBox="0 0 120 120" fill="none" xmlns="http://www.w3.org/2000/svg">
<path d="M77.7586 52.5236C84.3884 52.5236 90.6199 55.0994 95.3023 59.7822L99.8933 64.3736C109.27 60.2158 116.591 51.8814 119.021 41.7213C120.363 36.1151 120.273 30.687 119.072 25.6901C118.459 23.1401 115.221 22.2893 113.367 24.1423L97.2205 40.2907H79.5033V22.7815L95.6503 6.63314C97.5045 4.77877 96.6522 1.54019 94.1026 0.928474C89.1062 -0.272695 83.6786 -0.362929 78.0728 0.978864C65.1131 4.07964 55.0148 15.0929 52.9501 28.26C52.6124 30.2112 52.5421 32.1096 52.5655 33.9846L71.9653 53.4049C73.8683 52.758 75.8134 52.5236 77.7586 52.5236V52.5236ZM89.9918 65.297C84.5642 59.8689 76.5001 58.8353 69.9804 62.0392L44.785 37.0315V22.4979L14.9986 0.000351439L0 14.7894L22.498 44.5783L37.0373 44.5802L62.0428 69.5645C58.8392 76.0848 59.8748 84.1496 65.3027 89.5777L92.722 117.023C96.1483 120.421 101.677 120.421 105.075 117.022L117.437 104.659C120.835 101.261 120.835 95.7343 117.437 92.3054L89.9918 65.297ZM53.4092 71.9533L39.5355 58.1017L4.6402 93.0001C-1.5397 99.1805 -1.5397 109.191 4.6402 115.371C7.7243 118.453 11.7669 120 15.8189 120C19.8709 120 23.9135 118.455 27.0022 115.364L54.9138 87.4501C52.8468 82.5704 52.1671 77.2032 53.4092 71.9533ZM14.9986 110.625C11.8935 110.625 9.37415 108.105 9.37415 105C9.37415 101.892 11.8935 99.3751 14.9986 99.3751C18.1038 99.3751 20.6231 101.883 20.6231 105C20.6231 108.117 18.1038 110.625 14.9986 110.625Z" fill="#D0BD7D"/>
</svg>
